<svg xmlns="http://www.w3.org/2000/svg" width="1200" height="500" viewBox="0 0 1200 500">
  <style>.title{font:700 25px Arial;fill:#172033}.h{font:700 16px Arial;fill:#172033}.t{font:14px Arial;fill:#172033}.box{stroke:#64748b;stroke-width:2;rx:12}.line{stroke:#475569;stroke-width:2.5;marker-end:url(#a)}</style>
  <defs><marker id="a" markerWidth="10" markerHeight="10" refX="8" refY="3" orient="auto"><path d="M0,0 L0,6 L9,3 z" fill="#475569"/></marker></defs>
  <rect width="1200" height="500" fill="#fff"/><text x="35" y="42" class="title">Evidence-based diagnosis and human-approved remediation</text>
  <rect x="45" y="180" width="180" height="75" fill="#dbeafe" class="box"/><text x="72" y="213" class="t">Connectivity question</text><text x="72" y="235" class="t">A → destination</text>
  <rect x="285" y="180" width="190" height="75" fill="#dcfce7" class="box"/><text x="318" y="213" class="t">Invoke MCP tool</text><text x="318" y="235" class="t">diagnostic call</text>
  <rect x="535" y="180" width="210" height="75" fill="#e0f2fe" class="box"/><text x="560" y="213" class="t">AWS evidence</text><text x="560" y="235" class="t">Reachability / endpoint</text>
  <polygon points="850,175 930,218 850,260 770,218" fill="#fef3c7" stroke="#64748b" stroke-width="2"/><text x="816" y="214" class="t">Path found?</text>
  <rect x="1000" y="105" width="155" height="70" fill="#dcfce7" class="box"/><text x="1027" y="137" class="t">Healthy result</text><text x="1027" y="159" class="t">record evidence</text>
  <rect x="1000" y="300" width="155" height="70" fill="#fee2e2" class="box"/><text x="1027" y="332" class="t">Root cause</text><text x="1027" y="354" class="t">SG/route mismatch</text>
  <rect x="735" y="390" width="210" height="70" fill="#fef3c7" class="box"/><text x="770" y="422" class="t">Human-approved fix</text><text x="770" y="444" class="t">restore controlled rule</text>
  <line x1="225" y1="218" x2="285" y2="218" class="line"/><line x1="475" y1="218" x2="535" y2="218" class="line"/><line x1="745" y1="218" x2="770" y2="218" class="line"/><line x1="930" y1="205" x2="1000" y2="160" class="line"/><line x1="930" y1="235" x2="1000" y2="330" class="line"/><line x1="1000" y1="365" x2="945" y2="425" class="line"/><path d="M735 425 C570 470 400 430 380 255" fill="none" class="line"/>
  <text x="955" y="190" class="h">yes</text><text x="955" y="275" class="h">no</text><text x="390" y="465" class="h">re-run diagnosis and confirm remediation</text>
</svg>
